<svg version="1.1" viewBox="0.0 0.0 490.501312335958 490.501312335958" fill="none" stroke="none" stroke-linecap="square" stroke-miterlimit="10" xmlns:xlink="http://www.w3.org/1999/xlink" xmlns="http://www.w3.org/2000/svg"><clipPath id="p.0"><path d="m0 0l490.5013 0l0 490.5013l-490.5013 0l0 -490.5013z" clip-rule="nonzero"/></clipPath><g clip-path="url(#p.0)"><path fill="#000000" fill-opacity="0.0" d="m0 0l490.5013 0l0 490.5013l-490.5013 0z" fill-rule="evenodd"/><path fill="#434343" d="m-0.41863516 245.25066l0 0c0 -135.67941 109.98988 -245.6693 245.6693 -245.6693l0 0c65.15553 0 127.6425 25.88294 173.71443 71.954865c46.07193 46.07193 71.954865 108.558876 71.954865 173.71442l0 0c0 135.6794 -109.9899 245.6693 -245.6693 245.6693l0 0c-135.67941 0 -245.6693 -109.9899 -245.6693 -245.6693z" fill-rule="evenodd"/><defs><radialGradient id="p.1" gradientUnits="userSpaceOnUse" gradientTransform="matrix(17.145793767873396 0.0 0.0 17.145793767873396 0.0 0.0)" spreadMethod="pad" cx="14.30391452412505" cy="14.303837984305677" fx="14.30391452412505" fy="14.303837984305677" r="17.145793914794922"><stop offset="0.0" stop-color="#696969"/><stop offset="1.0" stop-color="#1d1d1d"/></radialGradient></defs><path fill="url(#p.1)" d="m37.377953 245.25066l0 0c0 -114.80565 93.06837 -207.87402 207.87402 -207.87402l0 0c55.131607 0 108.00517 21.900951 146.98912 60.884888c38.983948 38.98394 60.884888 91.857506 60.884888 146.98914l0 0c0 114.80565 -93.06836 207.87401 -207.87401 207.87401l0 0c-114.80565 0 -207.87402 -93.06836 -207.87402 -207.87401z" fill-rule="evenodd"/><path stroke="#ffffff" stroke-width="12.0" stroke-linejoin="round" stroke-linecap="butt" d="m37.377953 245.25066l0 0c0 -114.80565 93.06837 -207.87402 207.87402 -207.87402l0 0c55.131607 0 108.00517 21.900951 146.98912 60.884888c38.983948 38.98394 60.884888 91.857506 60.884888 146.98914l0 0c0 114.80565 -93.06836 207.87401 -207.87401 207.87401l0 0c-114.80565 0 -207.87402 -93.06836 -207.87402 -207.87401z" fill-rule="evenodd"/><path fill="#ffffff" d="m237.84908 32.440945l0 0c0 -4.087776 3.313797 -7.401575 7.401581 -7.401575l0 0l0 0c1.9630127 0 3.845642 0.77980614 5.2337036 2.1678715c1.3880615 1.3880653 2.1678772 3.2706833 2.1678772 5.2337036l0 229.88977c0 4.0877686 -3.313797 7.4015503 -7.401581 7.4015503l0 0l0 0c-4.087784 0 -7.401581 -3.3137817 -7.401581 -7.4015503z" fill-rule="evenodd"/><path fill="#ffffff" d="m227.29233 258.8848l0 0c-3.88826 1.2682495 -8.069702 -0.85528564 -9.339523 -4.7430267l0 0l0 0c-0.609787 -1.8669586 -0.4528656 -3.8993835 0.43626404 -5.6501617c0.88912964 -1.7507935 2.437622 -3.0765228 4.304825 -3.6855469l150.07686 -48.950623c3.8882751 -1.2682343 8.069702 0.85528564 9.339539 4.7430267l0 0l0 0c1.2698059 3.887741 -0.85284424 8.067474 -4.741089 9.335709z" fill-rule="evenodd"/></g></svg>
